<?xml version="1.0" standalone="no"?>
<!DOCTYPE svg PUBLIC "-//W3C//DTD SVG 20010904//EN"
 "http://www.w3.org/TR/2001/REC-SVG-20010904/DTD/svg10.dtd">
<svg version="1.0" xmlns="http://www.w3.org/2000/svg"
 width="225.000000pt" height="225.000000pt" viewBox="0 0 225.000000 225.000000"
 preserveAspectRatio="xMidYMid meet">
<metadata>
Created by potrace 1.11, written by Peter Selinger 2001-2013
</metadata>
<g transform="translate(0.000000,225.000000) scale(0.100000,-0.100000)"
fill="#000000" stroke="none">
<path d="M740 2045 c-187 -40 -374 -147 -476 -271 -34 -41 -40 -44 -83 -44
-26 0 -56 -7 -69 -16 -31 -21 -112 -163 -112 -195 0 -31 28 -59 58 -59 26 0
26 7 6 -99 -21 -110 -14 -286 15 -386 70 -239 235 -434 455 -540 138 -65 206
-80 371 -80 144 0 194 8 316 54 167 63 348 220 429 374 21 39 31 48 60 52 90
15 219 47 238 61 36 25 29 69 -21 128 -37 43 -103 137 -131 184 -4 7 25 -8 65
-34 97 -63 224 -117 255 -110 30 8 54 45 99 159 52 130 40 150 -92 153 -47 1
-115 10 -152 19 -83 20 -218 88 -212 107 20 68 23 89 17 120 -13 71 -87 127
-168 128 -33 0 -46 8 -97 59 -104 104 -221 173 -368 217 -109 32 -300 42 -403
19z m260 -36 c173 -21 328 -93 453 -210 l72 -68 -620 0 -620 0 71 67 c118 111
283 190 441 211 97 12 109 12 203 0z m673 -320 c39 -20 57 -51 57 -101 0 -39
-5 -52 -31 -77 -27 -27 -38 -31 -85 -31 -45 0 -59 5 -86 29 -29 26 -33 35 -33
81 0 46 4 55 33 81 26 23 42 29 78 29 25 0 55 -5 67 -11z m-213 -29 c-13 -25
-17 -86 -6 -127 l8 -33 -700 0 c-567 0 -702 3 -710 13 -9 10 0 32 34 90 l44
77 671 0 c664 0 670 0 659 -20z m64 -206 c13 -5 16 -23 16 -88 0 -84 23 -347
39 -444 4 -28 16 -61 26 -72 17 -19 17 -21 -1 -56 -10 -20 -43 -64 -71 -99
-255 -310 -680 -389 -1033 -192 -101 57 -240 196 -297 297 -101 181 -134 403
-87 596 17 70 -50 64 709 64 376 0 690 -3 699 -6z m253 -28 c93 -56 203 -88
321 -94 76 -4 102 -8 102 -18 0 -14 -74 -192 -85 -202 -10 -10 -115 31 -191
75 -103 60 -194 148 -217 209 -14 38 -15 49 -5 56 7 4 14 8 15 8 1 0 28 -15
60 -34z m-112 -43 c49 -131 159 -317 237 -400 17 -17 27 -36 24 -42 -19 -29
-295 -81 -296 -55 0 5 -7 54 -16 109 -8 55 -17 175 -21 268 l-6 167 30 0 c27
0 32 -5 48 -47z"/>
<path d="M442 1379 c-15 -5 -22 -15 -20 -26 3 -15 13 -18 63 -15 53 3 65 0
106 -27 25 -17 60 -48 77 -70 21 -26 38 -38 47 -35 25 10 17 33 -32 86 -75 80
-172 115 -241 87z"/>
<path d="M1232 1375 c-46 -20 -97 -61 -134 -107 -27 -35 -29 -41 -16 -54 13
-14 21 -9 68 40 66 69 106 89 173 84 43 -2 52 0 55 14 7 35 -84 50 -146 23z"/>
<path d="M504 1204 c-43 -42 -15 -104 46 -104 56 0 83 83 38 114 -32 23 -55
20 -84 -10z"/>
<path d="M1216 1209 c-48 -38 -23 -109 38 -109 60 0 88 68 46 110 -26 26 -51
25 -84 -1z"/>
<path d="M774 852 c-64 -23 -104 -48 -104 -66 0 -25 23 -23 75 3 44 23 61 26
155 26 94 0 110 -3 156 -27 55 -29 89 -25 68 9 -35 58 -249 91 -350 55z"/>
</g>
</svg>
